<svg width="28" height="32" viewBox="0 0 28 32" fill="none" xmlns="http://www.w3.org/2000/svg">
<rect width="28" height="32" fill="#38454F"/>
<g id="Mobile 411px" clip-path="url(#clip0_0_1)">
<rect width="414" height="2393" transform="translate(-257 -2317)" fill="#F3F3F3"/>
<g id="Footer">
<rect id="Rectangle 6" x="-257" y="-140" width="414" height="191" fill="#222222"/>
<g id="Redes">
<g id="instagram-brands" clip-path="url(#clip1_0_1)">
<path id="Vector" d="M13.9984 8.81017C10.0256 8.81017 6.82118 12.0153 6.82118 15.989C6.82118 19.9627 10.0256 23.1679 13.9984 23.1679C17.9712 23.1679 21.1757 19.9627 21.1757 15.989C21.1757 12.0153 17.9712 8.81017 13.9984 8.81017ZM13.9984 20.6562C11.4311 20.6562 9.33228 18.5632 9.33228 15.989C9.33228 13.4149 11.4249 11.3218 13.9984 11.3218C16.572 11.3218 18.6646 13.4149 18.6646 15.989C18.6646 18.5632 16.5657 20.6562 13.9984 20.6562ZM23.1433 8.51652C23.1433 9.44745 22.3937 10.191 21.4693 10.191C20.5385 10.191 19.7952 9.44121 19.7952 8.51652C19.7952 7.59183 20.5448 6.84208 21.4693 6.84208C22.3937 6.84208 23.1433 7.59183 23.1433 8.51652ZM27.8969 10.2159C27.7907 7.97295 27.2785 5.98611 25.6357 4.34916C23.9991 2.71221 22.0127 2.19988 19.7702 2.08742C17.459 1.95621 10.5316 1.95621 8.2204 2.08742C5.98415 2.19363 3.99775 2.70596 2.35492 4.34291C0.712088 5.97987 0.20612 7.9667 0.0936829 10.2097C-0.0374939 12.5214 -0.0374939 19.4504 0.0936829 21.7621C0.199874 24.0051 0.712088 25.9919 2.35492 27.6289C3.99775 29.2658 5.9779 29.7781 8.2204 29.8906C10.5316 30.0218 17.459 30.0218 19.7702 29.8906C22.0127 29.7844 23.9991 29.2721 25.6357 27.6289C27.2723 25.9919 27.7845 24.0051 27.8969 21.7621C28.0281 19.4504 28.0281 12.5277 27.8969 10.2159ZM24.9111 24.2425C24.4239 25.4671 23.4806 26.4105 22.2501 26.9041C20.4073 27.6351 16.0348 27.4664 13.9984 27.4664C11.9621 27.4664 7.58325 27.6289 5.74678 26.9041C4.52246 26.4168 3.57924 25.4733 3.08576 24.2425C2.35492 22.3994 2.52358 18.0258 2.52358 15.989C2.52358 13.9522 2.36117 9.57241 3.08576 7.73553C3.57299 6.51094 4.51621 5.5675 5.74678 5.07392C7.5895 4.34291 11.9621 4.51161 13.9984 4.51161C16.0348 4.51161 20.4136 4.34916 22.2501 5.07392C23.4744 5.56125 24.4176 6.50469 24.9111 7.73553C25.6419 9.57866 25.4733 13.9522 25.4733 15.989C25.4733 18.0258 25.6419 22.4056 24.9111 24.2425Z" fill="#CE0CFF"/>
</g>
</g>
</g>
</g>
<defs>
<clipPath id="clip0_0_1">
<rect width="414" height="2393" fill="white" transform="translate(-257 -2317)"/>
</clipPath>
<clipPath id="clip1_0_1">
<rect width="28" height="32" fill="white"/>
</clipPath>
</defs>
</svg>
