<svg width="32" height="32" viewBox="0 0 32 32" fill="none" xmlns="http://www.w3.org/2000/svg">
<g id="twitter-brands">
<path id="Vector" d="M28.7106 9.48479C28.7309 9.76915 28.7309 10.0536 28.7309 10.3379C28.7309 19.0113 22.132 29.0051 10.0711 29.0051C6.35531 29.0051 2.90356 27.9285 0 26.0598C0.527937 26.1207 1.0355 26.1411 1.58375 26.1411C4.64969 26.1411 7.47206 25.1052 9.72587 23.338C6.84262 23.277 4.42637 21.388 3.59387 18.7879C4 18.8488 4.40606 18.8895 4.8325 18.8895C5.42131 18.8895 6.01019 18.8082 6.55837 18.6661C3.55331 18.0566 1.29944 15.4161 1.29944 12.227V12.1458C2.1725 12.6333 3.18781 12.938 4.26387 12.9785C2.49737 11.8004 1.34006 9.78947 1.34006 7.51446C1.34006 6.29573 1.66487 5.17854 2.23344 4.20353C5.46187 8.18478 10.3147 10.7847 15.7562 11.0692C15.6547 10.5817 15.5938 10.0739 15.5938 9.56607C15.5938 5.95041 18.5177 3.00513 22.1522 3.00513C24.0405 3.00513 25.7461 3.79731 26.9441 5.077C28.4262 4.79264 29.8476 4.24417 31.1065 3.49263C30.6191 5.0161 29.5836 6.29579 28.2232 7.10823C29.5431 6.96612 30.8222 6.60041 31.9999 6.09265C31.1066 7.3926 29.9898 8.55036 28.7106 9.48479Z" fill="#14AED0"/>
</g>
</svg>
